<svg width="34" height="34" viewBox="0 0 34 34" fill="none" xmlns="http://www.w3.org/2000/svg">
<path d="M8.66671 25.6487H25.3334V23.1487H8.66671V25.6487ZM16.875 20.3987L23.4584 13.857L21.7084 12.107L18.1667 15.607V7.31535H15.6667V15.607L12.125 12.107L10.375 13.857L16.875 20.3987ZM17 33.982C14.7223 33.982 12.5695 33.5445 10.5417 32.6695C8.51393 31.7945 6.7431 30.6001 5.22921 29.0862C3.71532 27.5723 2.52087 25.8015 1.64587 23.7737C0.770874 21.7459 0.333374 19.5931 0.333374 17.3153C0.333374 15.0098 0.770874 12.8431 1.64587 10.8153C2.52087 8.78757 3.71532 7.02368 5.22921 5.52368C6.7431 4.02368 8.51393 2.83618 10.5417 1.96118C12.5695 1.08618 14.7223 0.648682 17 0.648682C19.3056 0.648682 21.4723 1.08618 23.5 1.96118C25.5278 2.83618 27.2917 4.02368 28.7917 5.52368C30.2917 7.02368 31.4792 8.78757 32.3542 10.8153C33.2292 12.8431 33.6667 15.0098 33.6667 17.3153C33.6667 19.5931 33.2292 21.7459 32.3542 23.7737C31.4792 25.8015 30.2917 27.5723 28.7917 29.0862C27.2917 30.6001 25.5278 31.7945 23.5 32.6695C21.4723 33.5445 19.3056 33.982 17 33.982ZM17 31.482C20.9445 31.482 24.2917 30.1001 27.0417 27.3362C29.7917 24.5723 31.1667 21.232 31.1667 17.3153C31.1667 13.3709 29.7917 10.0237 27.0417 7.27368C24.2917 4.52368 20.9445 3.14868 17 3.14868C13.0834 3.14868 9.7431 4.52368 6.97921 7.27368C4.21532 10.0237 2.83337 13.3709 2.83337 17.3153C2.83337 21.232 4.21532 24.5723 6.97921 27.3362C9.7431 30.1001 13.0834 31.482 17 31.482Z" fill="#212121"/>
</svg>
